PathFileType	4	(X/Y/Z)	/Users/itak/Documents/Research/Walk-IL/dataset/trc/00237_00009.trc
DataRate	CameraRate	NumFrames	NumMarkers	Units	OrigDataRate	OrigDataStartFrame	OrigNumFrames
100.000000	100.000000	4	53	mm	100.000000	355	948
Frame#	Time	RPSI			LPSI			L3			STRN			T10			C7			CLAV			RBAK			LBAK			LSHO			LUPA			LAEL			LAOL			LWTS			LWPS			LFRA			LIFD			LHPS			LHTS			RSHO			RUPA			RAEL			RAOL			RWTS			RWPS			RFRA			RIFD			RHTS			RHPS			RBHD			LFHD			RFHD			LBHD			LHIP			RHIP			RASI			LASI			LKNE			LTHI			LANK			LTIP			LTOE			LMT1			LMT5			LHEE			RKNE			RTHI			RANK			RTIP			RTOE			RMT1			RMT5			RHEE			
		X1	Y1	Z1	X2	Y2	Z2	X3	Y3	Z3	X4	Y4	Z4	X5	Y5	Z5	X6	Y6	Z6	X7	Y7	Z7	X8	Y8	Z8	X9	Y9	Z9	X10	Y10	Z10	X11	Y11	Z11	X12	Y12	Z12	X13	Y13	Z13	X14	Y14	Z14	X15	Y15	Z15	X16	Y16	Z16	X17	Y17	Z17	X18	Y18	Z18	X19	Y19	Z19	X20	Y20	Z20	X21	Y21	Z21	X22	Y22	Z22	X23	Y23	Z23	X24	Y24	Z24	X25	Y25	Z25	X26	Y26	Z26	X27	Y27	Z27	X28	Y28	Z28	X29	Y29	Z29	X30	Y30	Z30	X31	Y31	Z31	X32	Y32	Z32	X33	Y33	Z33	X34	Y34	Z34	X35	Y35	Z35	X36	Y36	Z36	X37	Y37	Z37	X38	Y38	Z38	X39	Y39	Z39	X40	Y40	Z40	X41	Y41	Z41	X42	Y42	Z42	X43	Y43	Z43	X44	Y44	Z44	X45	Y45	Z45	X46	Y46	Z46	X47	Y47	Z47	X48	Y48	Z48	X49	Y49	Z49	X50	Y50	Z50	X51	Y51	Z51	X52	Y52	Z52	X53	Y53	Z53	

356	3.55	-375.7598876953125	1039.464477539062	121.0789642333984	-493.3764953613281	1044.226928710938	146.6775817871094	-440.1668090820312	1128.884887695312	138.5874176025391	-491.28857421875	1301.080810546875	-113.5498580932617	-426.7319946289062	1256.70068359375	130.1071014404297	-425.2705383300781	1513.323608398438	55.36344528198242	-474.5171203613281	1418.8349609375	-96.21457672119141	-342.1819152832031	1374.12890625	121.1419982910156	-525.5492553710938	1484.678833007812	107.2193756103516	-606.4906616210938	1486.319580078125	38.52602005004883	-673.6217041015625	1377.9482421875	109.6862564086914	-705.7510986328125	1173.77685546875	149.2075500488281	-632.0361938476562	1164.954345703125	196.0292358398438	-701.494384765625	920.8826904296875	101.3044662475586	-761.879150390625	921.4285888671875	160.1863250732422	-731.2868041992188	1067.783325195312	159.4143218994141	-710.177978515625	738.0411987304688	156.5401916503906	-768.7747802734375	832.0169677734375	167.2797241210938	-739.9495849609375	818.4464111328125	106.2786331176758	-281.7358703613281	1458.134643554688	-40.48995590209961	-215.1167449951172	1390.807983398438	-33.46870040893555	-182.4479827880859	1110.30908203125	-8.296799659729004	-261.6290893554688	1106.469116210938	44.82490921020508	-267.317626953125	911.5404663085938	-145.6959686279297	-196.6241607666016	887.86279296875	-107.4394912719727	-180.2073516845703	1042.532104492188	-39.32146453857422	-289.2336120605469	720.6461791992188	-174.4828033447266	-267.653076171875	793.7716064453125	-196.7723083496094	-210.5484466552734	785.5997314453125	-153.2142333984375	-385.082275390625	1670.71044921875	-16.80243492126465	-495.8463439941406	1680.233642578125	-214.8074798583984	-396.5310974121094	1669.287475585938	-222.4435119628906	-520.6144409179688	1681.585327148438	-51.81510162353516	-652.009033203125	985.609375	73.58492279052734	-291.705810546875	994.8756713867188	5.123517513275146	-344.9840087890625	1036.015991210938	-83.75904846191406	-621.8832397460938	1028.4775390625	-33.06503295898438	-680.01708984375	525.1302490234375	-105.89013671875	-689.853759765625	661.938232421875	-54.27103805541992	-672.4641723632812	119.6947326660156	168.0160675048828	-685.0027465820312	338.0131530761719	25.9371280670166	-700.07763671875	53.71030426025391	-34.06481170654297	-636.068603515625	59.90969085693359	11.44346618652344	-734.3729858398438	75.42180633544922	68.28047943115234	-603.5073852539062	143.5773468017578	200.0772247314453	-394.3331604003906	507.1136779785156	-23.85895538330078	-319.0253601074219	768.3566284179688	-53.03600692749023	-467.8624877929688	35.00600433349609	68.12413787841797	-431.2150268554688	390.4440612792969	-23.21526336669922	-557.5720825195312	44.47861099243164	-129.0025787353516	-586.5059814453125	43.17702102661133	-65.15975952148438	-467.1436767578125	37.4255485534668	-43.7550163269043	-511.4632263183594	35.62773895263672	141.0132751464844	
357	3.56	-377.9935913085938	1039.506225585938	115.6956024169922	-495.9378051757812	1044.341918945312	140.0984039306641	-442.4105834960938	1128.853637695312	132.4723358154297	-491.3478088378906	1300.93701171875	-120.2601776123047	-428.7684936523438	1256.75634765625	123.9787673950195	-426.4244384765625	1513.250244140625	48.96147537231445	-474.6661987304688	1418.736328125	-102.8980712890625	-343.7598266601562	1374.06982421875	115.3308486938477	-526.9448852539062	1484.562377929688	100.1678924560547	-607.4865112304688	1486.248168945312	31.01274871826172	-675.1905517578125	1378.044311523438	101.9662399291992	-707.6763916015625	1174.0166015625	141.8008728027344	-634.1453857421875	1165.25634765625	188.9883117675781	-703.4985961914062	920.8478393554688	95.07939910888672	-764.2186279296875	921.806640625	153.5773468017578	-733.411865234375	1068.107543945312	152.2823028564453	-712.382568359375	738.3366088867188	151.6947937011719	-771.1766357421875	832.4375	161.2608032226562	-742.0348510742188	818.4287719726562	100.5263290405273	-282.2691040039062	1457.976318359375	-45.97098159790039	-215.7438659667969	1390.627685546875	-38.54184722900391	-183.3050079345703	1110.007446289062	-13.59663581848145	-262.4942932128906	1106.159423828125	39.41536712646484	-269.410888671875	913.4500732421875	-153.2148132324219	-199.0436706542969	888.630859375	-115.0532913208008	-181.3914337158203	1042.407104492188	-45.26875305175781	-293.2266235351562	723.3397216796875	-184.2914886474609	-270.6819458007812	796.4095458984375	-205.8783721923828	-213.7978363037109	787.0751953125	-162.2164001464844	-385.7608032226562	1670.60693359375	-22.93869400024414	-495.1933898925781	1680.154174804688	-221.6569519042969	-395.8192749023438	1669.191528320312	-228.6497039794922	-521.0467529296875	1681.502075195312	-58.8476448059082	-653.813232421875	985.8687133789062	65.15099334716797	-292.5615234375	994.7127075195312	0.7628172636032104	-345.0215759277344	1035.927490234375	-88.73313903808594	-622.446044921875	1028.616455078125	-41.0986328125	-677.5230712890625	526.9276733398438	-120.1969375610352	-688.6823120117188	662.9852905273438	-66.61457061767578	-681.5360717773438	112.2508926391602	139.6213531494141	-687.957275390625	335.4859313964844	5.338230609893799	-704.261474609375	54.45885848999023	-65.69790649414062	-641.5028686523438	58.00908660888672	-18.08027458190918	-741.2929077148438	73.02867126464844	36.37515640258789	-613.3032836914062	133.7527008056641	174.7551727294922	-394.3229675292969	506.6961364746094	-24.95497512817383	-319.5219421386719	767.8614501953125	-56.1175422668457	-467.8726501464844	35.06912231445312	68.17028045654297	-431.0784606933594	390.2047119140625	-23.89083671569824	-557.7665405273438	44.37155151367188	-129.0043640136719	-586.5239868164062	43.1451301574707	-65.20091247558594	-467.1767883300781	37.47131729125977	-43.7248649597168	-511.5106506347656	35.65334701538086	141.0442352294922	
358	3.57	-380.1903686523438	1039.48046875	110.281982421875	-498.4720764160156	1044.420043945312	133.460693359375	-444.6288452148438	1128.806396484375	126.3442001342773	-491.3293762207031	1300.756469726562	-126.9861221313477	-430.7820129394531	1256.754760742188	117.8352737426758	-427.6021728515625	1513.13525390625	42.5693244934082	-474.7684631347656	1418.602783203125	-109.6029891967773	-345.4364929199219	1373.971923828125	109.5641250610352	-528.3826293945312	1484.4306640625	93.07913208007812	-608.4605712890625	1486.1572265625	23.4199104309082	-676.783203125	1378.114501953125	94.11238098144531	-709.6322021484375	1174.214477539062	134.1907348632812	-636.2963256835938	1165.504516601562	181.7768249511719	-705.4697875976562	920.8185424804688	88.45379638671875	-766.54296875	922.1254272460938	146.554443359375	-735.5421752929688	1068.372680664062	144.87451171875	-714.6033325195312	738.571533203125	146.2444458007812	-773.577880859375	832.7953491210938	154.7324523925781	-744.10498046875	818.4141845703125	94.25865936279297	-282.7591857910156	1457.788696289062	-51.3564567565918	-216.3444213867188	1390.4169921875	-43.45756149291992	-184.1338348388672	1109.68505859375	-18.68486976623535	-263.3370971679688	1105.851440429688	34.16937637329102	-271.4129333496094	915.344482421875	-160.5061187744141	-201.3491821289062	889.4143676757812	-122.4297561645508	-182.5354461669922	1042.267944335938	-50.9955940246582	-297.0812072753906	726.070068359375	-193.8631591796875	-273.5880432128906	799.06396484375	-214.7256164550781	-216.9378356933594	788.56298828125	-170.9706726074219	-386.4119873046875	1670.46240234375	-29.05136680603027	-494.4738159179688	1680.049072265625	-228.4955139160156	-395.0469055175781	1669.062744140625	-234.8230743408203	-521.4381713867188	1681.386474609375	-65.87469482421875	-655.59765625	986.1121215820312	56.67869186401367	-293.4044799804688	994.4845581054688	-3.622996807098389	-345.060302734375	1035.805786132812	-93.73161315917969	-622.9202270507812	1028.709838867188	-49.15071487426758	-674.97314453125	528.6818237304688	-134.0746154785156	-687.4048461914062	663.9661865234375	-78.62433624267578	-689.5023803710938	105.1240310668945	110.6654357910156	-690.40673828125	333.0312194824219	-15.35933589935303	-706.7227783203125	55.47167205810547	-97.44387054443359	-645.3633422851562	56.54966735839844	-47.7985725402832	-746.6469116210938	70.81788635253906	4.12436580657959	-622.2224731445312	124.3372116088867	148.8217010498047	-394.4869689941406	506.2772216796875	-26.34645652770996	-320.0238952636719	767.326904296875	-59.32559967041016	-467.8952026367188	35.13703918457031	68.2120361328125	-431.0694885253906	389.9288330078125	-24.79270362854004	-557.9486694335938	44.25775146484375	-129.0168914794922	-586.53173828125	43.09807205200195	-65.25373077392578	-467.2071533203125	37.52265167236328	-43.69391250610352	-511.5889282226562	35.69076919555664	141.1175079345703	
359	3.58	-382.3540649414062	1039.3896484375	104.8378677368164	-500.975830078125	1044.458862304688	126.7677841186523	-446.8218078613281	1128.73828125	120.1914749145508	-491.2288513183594	1300.53466796875	-133.7306213378906	-432.7659606933594	1256.69580078125	111.6646881103516	-428.801025390625	1512.976806640625	36.17666625976562	-474.825439453125	1418.427368164062	-116.3338088989258	-347.2007141113281	1373.836181640625	103.8295974731445	-529.8644409179688	1484.2880859375	85.94570159912109	-609.4185791015625	1486.039428710938	15.73532295227051	-678.3972778320312	1378.152221679688	86.11107635498047	-711.608642578125	1174.36474609375	126.3717575073242	-638.490478515625	1165.690063476562	174.3913879394531	-707.4019775390625	920.7855834960938	81.42537689208984	-768.8490600585938	922.3771362304688	139.1200714111328	-737.669921875	1068.572998046875	137.1873474121094	-716.8626708984375	738.7323608398438	140.1503448486328	-775.9724731445312	833.079833984375	147.6926116943359	-746.1450805664062	818.3931274414062	87.47520446777344	-283.2084045410156	1457.577026367188	-56.65579986572266	-216.9168548583984	1390.180419921875	-48.2266845703125	-184.9481964111328	1109.344604492188	-23.56973457336426	-264.1861877441406	1105.550048828125	29.06619453430176	-273.3110656738281	917.1995849609375	-167.5747375488281	-203.537109375	890.1968383789062	-129.5581512451172	-183.6509704589844	1042.1123046875	-56.50011825561523	-300.777099609375	728.8118286132812	-203.156005859375	-276.3309631347656	801.6975708007812	-223.2940216064453	-219.9501800537109	790.0449829101562	-179.4506378173828	-387.0375366210938	1670.270751953125	-35.14331436157227	-493.6846923828125	1679.916137695312	-235.3309326171875	-394.21142578125	1668.900024414062	-240.9688415527344	-521.790771484375	1681.234741210938	-72.90363311767578	-657.3514404296875	986.3427124023438	48.17214584350586	-294.2393493652344	994.19580078125	-8.029842376708984	-345.0730285644531	1035.64697265625	-98.76136779785156	-623.2988891601562	1028.755249023438	-57.21573638916016	-672.4073486328125	530.3804931640625	-147.5034027099609	-686.06298828125	664.8789672851562	-90.29391479492188	-696.2940063476562	98.32846069335938	81.21198272705078	-692.3405151367188	330.6663208007812	-36.11587905883789	-707.3773803710938	56.72303009033203	-129.1979217529297	-647.5536499023438	55.52644348144531	-77.58601379394531	-750.3584594726562	68.7532958984375	-28.39998435974121	-630.1812133789062	115.3829040527344	122.346565246582	-394.8171081542969	505.8543090820312	-28.07828903198242	-320.5152587890625	766.753662109375	-62.67288208007812	-467.9327087402344	35.20632171630859	68.24723052978516	-431.1990051269531	389.5999755859375	-25.96497917175293	-558.1095581054688	44.14334487915039	-129.0396575927734	-586.53369140625	43.01735687255859	-65.30705261230469	-467.2332458496094	37.57829666137695	-43.66357803344727	-511.6965026855469	35.74589920043945	141.2310485839844	
